<?xml version="1.0" encoding="UTF-8" standalone="no"?><svg xmlns="http://www.w3.org/2000/svg" xmlns:xlink="http://www.w3.org/1999/xlink" contentStyleType="text/css" height="597px" preserveAspectRatio="none" style="width:2708px;height:597px;background:#FFFFFF;" version="1.1" viewBox="0 0 2708 597" width="2708px" zoomAndPan="magnify"><defs/><g><g id="elem_HandlerMapping"><rect codeLine="1" fill="#F1F1F1" height="64.2969" id="HandlerMapping" rx="2.5" ry="2.5" style="stroke:#181818;stroke-width:0.5;" width="266" x="150.5" y="7"/><ellipse cx="223.25" cy="23" fill="#B4A7E5" rx="11" ry="11" style="stroke:#181818;stroke-width:1.0;"/><path d="M219.1719,18.7656 L219.1719,16.6094 L226.5625,16.6094 L226.5625,18.7656 L224.0938,18.7656 L224.0938,26.8438 L226.5625,26.8438 L226.5625,29 L219.1719,29 L219.1719,26.8438 L221.6406,26.8438 L221.6406,18.7656 L219.1719,18.7656 Z " fill="#000000"/><text fill="#000000" font-family="sans-serif" font-size="14" font-style="italic" lengthAdjust="spacing" textLength="112" x="243.75" y="27.8467">HandlerMapping</text><line style="stroke:#181818;stroke-width:0.5;" x1="151.5" x2="415.5" y1="39" y2="39"/><ellipse cx="161.5" cy="52.6484" fill="#000000" rx="3" ry="3" style="stroke:#000000;stroke-width:1.0;"/><text fill="#000000" font-family="sans-serif" font-size="14" lengthAdjust="spacing" textLength="240" x="170.5" y="55.9951">mappingRegistry: MappingRegistry</text><line style="stroke:#181818;stroke-width:0.5;" x1="151.5" x2="415.5" y1="63.2969" y2="63.2969"/></g><g id="elem_RequestCondition"><rect codeLine="4" fill="#F1F1F1" height="80.5938" id="RequestCondition" rx="2.5" ry="2.5" style="stroke:#181818;stroke-width:0.5;" width="293" x="1543" y="147"/><ellipse cx="1622.75" cy="163" fill="#B4A7E5" rx="11" ry="11" style="stroke:#181818;stroke-width:1.0;"/><path d="M1618.6719,158.7656 L1618.6719,156.6094 L1626.0625,156.6094 L1626.0625,158.7656 L1623.5938,158.7656 L1623.5938,166.8438 L1626.0625,166.8438 L1626.0625,169 L1618.6719,169 L1618.6719,166.8438 L1621.1406,166.8438 L1621.1406,158.7656 L1618.6719,158.7656 Z " fill="#000000"/><text fill="#000000" font-family="sans-serif" font-size="14" font-style="italic" lengthAdjust="spacing" textLength="125" x="1643.25" y="167.8467">RequestCondition</text><line style="stroke:#181818;stroke-width:0.5;" x1="1544" x2="1835" y1="179" y2="179"/><line style="stroke:#181818;stroke-width:0.5;" x1="1544" x2="1835" y1="187" y2="187"/><polygon fill="#FFFF44" points="1554,195.6484,1558,199.6484,1554,203.6484,1550,199.6484" style="stroke:#B38D22;stroke-width:1.0;"/><text fill="#000000" font-family="sans-serif" font-size="14" lengthAdjust="spacing" textLength="97" x="1563" y="203.9951">combine(T): T</text><polygon fill="#FFFF44" points="1554,211.9453,1558,215.9453,1554,219.9453,1550,215.9453" style="stroke:#B38D22;stroke-width:1.0;"/><text fill="#000000" font-family="sans-serif" font-size="14" lengthAdjust="spacing" textLength="267" x="1563" y="220.292">compareTo(T, HttpServletRequest): int</text></g><g id="elem_AbstractHandlerMapping"><rect codeLine="8" fill="#F1F1F1" height="48" id="AbstractHandlerMapping" rx="2.5" ry="2.5" style="stroke:#181818;stroke-width:0.5;" width="201" x="7" y="163.5"/><ellipse cx="22" cy="179.5" fill="#ADD1B2" rx="11" ry="11" style="stroke:#181818;stroke-width:1.0;"/><path d="M24.9688,185.1406 Q24.3906,185.4375 23.75,185.5781 Q23.1094,185.7344 22.4063,185.7344 Q19.9063,185.7344 18.5781,184.0938 Q17.2656,182.4375 17.2656,179.3125 Q17.2656,176.1875 18.5781,174.5313 Q19.9063,172.875 22.4063,172.875 Q23.1094,172.875 23.75,173.0313 Q24.4063,173.1875 24.9688,173.4844 L24.9688,176.2031 Q24.3438,175.625 23.75,175.3594 Q23.1563,175.0781 22.5313,175.0781 Q21.1875,175.0781 20.5,176.1563 Q19.8125,177.2188 19.8125,179.3125 Q19.8125,181.4063 20.5,182.4844 Q21.1875,183.5469 22.5313,183.5469 Q23.1563,183.5469 23.75,183.2813 Q24.3438,183 24.9688,182.4219 L24.9688,185.1406 Z " fill="#000000"/><text fill="#000000" font-family="sans-serif" font-size="14" lengthAdjust="spacing" textLength="169" x="36" y="184.3467">AbstractHandlerMapping</text><line style="stroke:#181818;stroke-width:0.5;" x1="8" x2="207" y1="195.5" y2="195.5"/><line style="stroke:#181818;stroke-width:0.5;" x1="8" x2="207" y1="203.5" y2="203.5"/></g><g id="elem_RequestMappingInfo"><rect codeLine="10" fill="#F1F1F1" height="178.375" id="RequestMappingInfo" rx="2.5" ry="2.5" style="stroke:#181818;stroke-width:0.5;" width="408" x="436.5" y="304"/><ellipse cx="564.75" cy="320" fill="#ADD1B2" rx="11" ry="11" style="stroke:#181818;stroke-width:1.0;"/><path d="M567.7188,325.6406 Q567.1406,325.9375 566.5,326.0781 Q565.8594,326.2344 565.1563,326.2344 Q562.6563,326.2344 561.3281,324.5938 Q560.0156,322.9375 560.0156,319.8125 Q560.0156,316.6875 561.3281,315.0313 Q562.6563,313.375 565.1563,313.375 Q565.8594,313.375 566.5,313.5313 Q567.1563,313.6875 567.7188,313.9844 L567.7188,316.7031 Q567.0938,316.125 566.5,315.8594 Q565.9063,315.5781 565.2813,315.5781 Q563.9375,315.5781 563.25,316.6563 Q562.5625,317.7188 562.5625,319.8125 Q562.5625,321.9063 563.25,322.9844 Q563.9375,324.0469 565.2813,324.0469 Q565.9063,324.0469 566.5,323.7813 Q567.0938,323.5 567.7188,322.9219 L567.7188,325.6406 Z " fill="#000000"/><text fill="#000000" font-family="sans-serif" font-size="14" lengthAdjust="spacing" textLength="143" x="585.25" y="324.8467">RequestMappingInfo</text><line style="stroke:#181818;stroke-width:0.5;" x1="437.5" x2="843.5" y1="336" y2="336"/><ellipse cx="447.5" cy="349.6484" fill="#000000" rx="3" ry="3" style="stroke:#000000;stroke-width:1.0;"/><text fill="#000000" font-family="sans-serif" font-size="14" lengthAdjust="spacing" textLength="378" x="456.5" y="352.9951">pathPatternsCondition: PathPatternsRequestCondition</text><ellipse cx="447.5" cy="365.9453" fill="#000000" rx="3" ry="3" style="stroke:#000000;stroke-width:1.0;"/><text fill="#000000" font-family="sans-serif" font-size="14" lengthAdjust="spacing" textLength="316" x="456.5" y="369.292">patternsCondition: PatternsRequestCondition</text><ellipse cx="447.5" cy="382.2422" fill="#000000" rx="3" ry="3" style="stroke:#000000;stroke-width:1.0;"/><text fill="#000000" font-family="sans-serif" font-size="14" lengthAdjust="spacing" textLength="382" x="456.5" y="385.5889">methodsCondition: RequestMethodsRequestCondition</text><ellipse cx="447.5" cy="398.5391" fill="#000000" rx="3" ry="3" style="stroke:#000000;stroke-width:1.0;"/><text fill="#000000" font-family="sans-serif" font-size="14" lengthAdjust="spacing" textLength="302" x="456.5" y="401.8857">paramsCondition: ParamsRequestCondition</text><ellipse cx="447.5" cy="414.8359" fill="#000000" rx="3" ry="3" style="stroke:#000000;stroke-width:1.0;"/><text fill="#000000" font-family="sans-serif" font-size="14" lengthAdjust="spacing" textLength="315" x="456.5" y="418.1826">headersCondition: HeadersRequestCondition</text><ellipse cx="447.5" cy="431.1328" fill="#000000" rx="3" ry="3" style="stroke:#000000;stroke-width:1.0;"/><text fill="#000000" font-family="sans-serif" font-size="14" lengthAdjust="spacing" textLength="348" x="456.5" y="434.4795">consumesCondition: ConsumesRequestCondition</text><ellipse cx="447.5" cy="447.4297" fill="#000000" rx="3" ry="3" style="stroke:#000000;stroke-width:1.0;"/><text fill="#000000" font-family="sans-serif" font-size="14" lengthAdjust="spacing" textLength="332" x="456.5" y="450.7764">producesCondition: ProducesRequestCondition</text><ellipse cx="447.5" cy="463.7266" fill="#000000" rx="3" ry="3" style="stroke:#000000;stroke-width:1.0;"/><text fill="#000000" font-family="sans-serif" font-size="14" lengthAdjust="spacing" textLength="342" x="456.5" y="467.0732">customConditionHolder: RequestConditionHolder</text><line style="stroke:#181818;stroke-width:0.5;" x1="437.5" x2="843.5" y1="474.375" y2="474.375"/></g><g id="elem_MappingRegistry"><rect codeLine="20" fill="#F1F1F1" height="113.1875" id="MappingRegistry" rx="2.5" ry="2.5" style="stroke:#181818;stroke-width:0.5;" width="432" x="243.5" y="131"/><ellipse cx="397.75" cy="147" fill="#ADD1B2" rx="11" ry="11" style="stroke:#181818;stroke-width:1.0;"/><path d="M400.7188,152.6406 Q400.1406,152.9375 399.5,153.0781 Q398.8594,153.2344 398.1563,153.2344 Q395.6563,153.2344 394.3281,151.5938 Q393.0156,149.9375 393.0156,146.8125 Q393.0156,143.6875 394.3281,142.0313 Q395.6563,140.375 398.1563,140.375 Q398.8594,140.375 399.5,140.5313 Q400.1563,140.6875 400.7188,140.9844 L400.7188,143.7031 Q400.0938,143.125 399.5,142.8594 Q398.9063,142.5781 398.2813,142.5781 Q396.9375,142.5781 396.25,143.6563 Q395.5625,144.7188 395.5625,146.8125 Q395.5625,148.9063 396.25,149.9844 Q396.9375,151.0469 398.2813,151.0469 Q398.9063,151.0469 399.5,150.7813 Q400.0938,150.5 400.7188,149.9219 L400.7188,152.6406 Z " fill="#000000"/><text fill="#000000" font-family="sans-serif" font-size="14" lengthAdjust="spacing" textLength="115" x="418.25" y="151.8467">MappingRegistry</text><line style="stroke:#181818;stroke-width:0.5;" x1="244.5" x2="674.5" y1="163" y2="163"/><ellipse cx="254.5" cy="176.6484" fill="#000000" rx="3" ry="3" style="stroke:#000000;stroke-width:1.0;"/><text fill="#000000" font-family="sans-serif" font-size="14" lengthAdjust="spacing" textLength="406" x="263.5" y="179.9951">registry: Map&lt;RequestMappingInfo, MappingRegistration&gt;</text><ellipse cx="254.5" cy="192.9453" fill="#000000" rx="3" ry="3" style="stroke:#000000;stroke-width:1.0;"/><text fill="#000000" font-family="sans-serif" font-size="14" lengthAdjust="spacing" textLength="335" x="263.5" y="196.292">pathLookup: Map&lt;String, RequestMappingInfo&gt;</text><ellipse cx="254.5" cy="209.2422" fill="#000000" rx="3" ry="3" style="stroke:#000000;stroke-width:1.0;"/><text fill="#000000" font-family="sans-serif" font-size="14" lengthAdjust="spacing" textLength="353" x="263.5" y="212.5889">nameLookup: Map&lt;String, List&lt;HandlerMethod&gt;&gt;</text><ellipse cx="254.5" cy="225.5391" fill="#000000" rx="3" ry="3" style="stroke:#000000;stroke-width:1.0;"/><text fill="#000000" font-family="sans-serif" font-size="14" lengthAdjust="spacing" textLength="381" x="263.5" y="228.8857">corsLookup: Map&lt;HandlerMethod, CorsConfiguration&gt;</text><line style="stroke:#181818;stroke-width:0.5;" x1="244.5" x2="674.5" y1="236.1875" y2="236.1875"/></g><g id="elem_MappingRegistration"><rect codeLine="26" fill="#F1F1F1" height="80.5938" id="MappingRegistration" rx="2.5" ry="2.5" style="stroke:#181818;stroke-width:0.5;" width="246" x="155.5" y="352.5"/><ellipse cx="203.25" cy="368.5" fill="#ADD1B2" rx="11" ry="11" style="stroke:#181818;stroke-width:1.0;"/><path d="M206.2188,374.1406 Q205.6406,374.4375 205,374.5781 Q204.3594,374.7344 203.6563,374.7344 Q201.1563,374.7344 199.8281,373.0938 Q198.5156,371.4375 198.5156,368.3125 Q198.5156,365.1875 199.8281,363.5313 Q201.1563,361.875 203.6563,361.875 Q204.3594,361.875 205,362.0313 Q205.6563,362.1875 206.2188,362.4844 L206.2188,365.2031 Q205.5938,364.625 205,364.3594 Q204.4063,364.0781 203.7813,364.0781 Q202.4375,364.0781 201.75,365.1563 Q201.0625,366.2188 201.0625,368.3125 Q201.0625,370.4063 201.75,371.4844 Q202.4375,372.5469 203.7813,372.5469 Q204.4063,372.5469 205,372.2813 Q205.5938,372 206.2188,371.4219 L206.2188,374.1406 Z " fill="#000000"/><text fill="#000000" font-family="sans-serif" font-size="14" lengthAdjust="spacing" textLength="142" x="223.75" y="373.3467">MappingRegistration</text><line style="stroke:#181818;stroke-width:0.5;" x1="156.5" x2="400.5" y1="384.5" y2="384.5"/><ellipse cx="166.5" cy="398.1484" fill="#000000" rx="3" ry="3" style="stroke:#000000;stroke-width:1.0;"/><text fill="#000000" font-family="sans-serif" font-size="14" lengthAdjust="spacing" textLength="212" x="175.5" y="401.4951">mapping: RequestMappingInfo</text><ellipse cx="166.5" cy="414.4453" fill="#000000" rx="3" ry="3" style="stroke:#000000;stroke-width:1.0;"/><text fill="#000000" font-family="sans-serif" font-size="14" lengthAdjust="spacing" textLength="220" x="175.5" y="417.792">handlerMethod: HandlerMethod</text><line style="stroke:#181818;stroke-width:0.5;" x1="156.5" x2="400.5" y1="425.0938" y2="425.0938"/></g><g id="elem_HandlerMethod"><rect fill="#F1F1F1" height="48" id="HandlerMethod" rx="2.5" ry="2.5" style="stroke:#181818;stroke-width:0.5;" width="138" x="209.5" y="542"/><ellipse cx="224.5" cy="558" fill="#ADD1B2" rx="11" ry="11" style="stroke:#181818;stroke-width:1.0;"/><path d="M227.4688,563.6406 Q226.8906,563.9375 226.25,564.0781 Q225.6094,564.2344 224.9063,564.2344 Q222.4063,564.2344 221.0781,562.5938 Q219.7656,560.9375 219.7656,557.8125 Q219.7656,554.6875 221.0781,553.0313 Q222.4063,551.375 224.9063,551.375 Q225.6094,551.375 226.25,551.5313 Q226.9063,551.6875 227.4688,551.9844 L227.4688,554.7031 Q226.8438,554.125 226.25,553.8594 Q225.6563,553.5781 225.0313,553.5781 Q223.6875,553.5781 223,554.6563 Q222.3125,555.7188 222.3125,557.8125 Q222.3125,559.9063 223,560.9844 Q223.6875,562.0469 225.0313,562.0469 Q225.6563,562.0469 226.25,561.7813 Q226.8438,561.5 227.4688,560.9219 L227.4688,563.6406 Z " fill="#000000"/><text fill="#000000" font-family="sans-serif" font-size="14" lengthAdjust="spacing" textLength="106" x="238.5" y="562.8467">HandlerMethod</text><line style="stroke:#181818;stroke-width:0.5;" x1="210.5" x2="346.5" y1="574" y2="574"/><line style="stroke:#181818;stroke-width:0.5;" x1="210.5" x2="346.5" y1="582" y2="582"/></g><g id="elem_PathPatternsRequestCondition"><rect fill="#F1F1F1" height="48" id="PathPatternsRequestCondition" rx="2.5" ry="2.5" style="stroke:#181818;stroke-width:0.5;" width="246" x="879.5" y="369"/><ellipse cx="894.5" cy="385" fill="#ADD1B2" rx="11" ry="11" style="stroke:#181818;stroke-width:1.0;"/><path d="M897.4688,390.6406 Q896.8906,390.9375 896.25,391.0781 Q895.6094,391.2344 894.9063,391.2344 Q892.4063,391.2344 891.0781,389.5938 Q889.7656,387.9375 889.7656,384.8125 Q889.7656,381.6875 891.0781,380.0313 Q892.4063,378.375 894.9063,378.375 Q895.6094,378.375 896.25,378.5313 Q896.9063,378.6875 897.4688,378.9844 L897.4688,381.7031 Q896.8438,381.125 896.25,380.8594 Q895.6563,380.5781 895.0313,380.5781 Q893.6875,380.5781 893,381.6563 Q892.3125,382.7188 892.3125,384.8125 Q892.3125,386.9063 893,387.9844 Q893.6875,389.0469 895.0313,389.0469 Q895.6563,389.0469 896.25,388.7813 Q896.8438,388.5 897.4688,387.9219 L897.4688,390.6406 Z " fill="#000000"/><text fill="#000000" font-family="sans-serif" font-size="14" lengthAdjust="spacing" textLength="214" x="908.5" y="389.8467">PathPatternsRequestCondition</text><line style="stroke:#181818;stroke-width:0.5;" x1="880.5" x2="1124.5" y1="401" y2="401"/><line style="stroke:#181818;stroke-width:0.5;" x1="880.5" x2="1124.5" y1="409" y2="409"/></g><g id="elem_PatternsRequestCondition"><rect fill="#F1F1F1" height="48" id="PatternsRequestCondition" rx="2.5" ry="2.5" style="stroke:#181818;stroke-width:0.5;" width="215" x="1161" y="369"/><ellipse cx="1176" cy="385" fill="#ADD1B2" rx="11" ry="11" style="stroke:#181818;stroke-width:1.0;"/><path d="M1178.9688,390.6406 Q1178.3906,390.9375 1177.75,391.0781 Q1177.1094,391.2344 1176.4063,391.2344 Q1173.9063,391.2344 1172.5781,389.5938 Q1171.2656,387.9375 1171.2656,384.8125 Q1171.2656,381.6875 1172.5781,380.0313 Q1173.9063,378.375 1176.4063,378.375 Q1177.1094,378.375 1177.75,378.5313 Q1178.4063,378.6875 1178.9688,378.9844 L1178.9688,381.7031 Q1178.3438,381.125 1177.75,380.8594 Q1177.1563,380.5781 1176.5313,380.5781 Q1175.1875,380.5781 1174.5,381.6563 Q1173.8125,382.7188 1173.8125,384.8125 Q1173.8125,386.9063 1174.5,387.9844 Q1175.1875,389.0469 1176.5313,389.0469 Q1177.1563,389.0469 1177.75,388.7813 Q1178.3438,388.5 1178.9688,387.9219 L1178.9688,390.6406 Z " fill="#000000"/><text fill="#000000" font-family="sans-serif" font-size="14" lengthAdjust="spacing" textLength="183" x="1190" y="389.8467">PatternsRequestCondition</text><line style="stroke:#181818;stroke-width:0.5;" x1="1162" x2="1375" y1="401" y2="401"/><line style="stroke:#181818;stroke-width:0.5;" x1="1162" x2="1375" y1="409" y2="409"/></g><g id="elem_RequestMethodsRequestCondition"><rect fill="#F1F1F1" height="48" id="RequestMethodsRequestCondition" rx="2.5" ry="2.5" style="stroke:#181818;stroke-width:0.5;" width="277" x="1411" y="369"/><ellipse cx="1426" cy="385" fill="#ADD1B2" rx="11" ry="11" style="stroke:#181818;stroke-width:1.0;"/><path d="M1428.9688,390.6406 Q1428.3906,390.9375 1427.75,391.0781 Q1427.1094,391.2344 1426.4063,391.2344 Q1423.9063,391.2344 1422.5781,389.5938 Q1421.2656,387.9375 1421.2656,384.8125 Q1421.2656,381.6875 1422.5781,380.0313 Q1423.9063,378.375 1426.4063,378.375 Q1427.1094,378.375 1427.75,378.5313 Q1428.4063,378.6875 1428.9688,378.9844 L1428.9688,381.7031 Q1428.3438,381.125 1427.75,380.8594 Q1427.1563,380.5781 1426.5313,380.5781 Q1425.1875,380.5781 1424.5,381.6563 Q1423.8125,382.7188 1423.8125,384.8125 Q1423.8125,386.9063 1424.5,387.9844 Q1425.1875,389.0469 1426.5313,389.0469 Q1427.1563,389.0469 1427.75,388.7813 Q1428.3438,388.5 1428.9688,387.9219 L1428.9688,390.6406 Z " fill="#000000"/><text fill="#000000" font-family="sans-serif" font-size="14" lengthAdjust="spacing" textLength="245" x="1440" y="389.8467">RequestMethodsRequestCondition</text><line style="stroke:#181818;stroke-width:0.5;" x1="1412" x2="1687" y1="401" y2="401"/><line style="stroke:#181818;stroke-width:0.5;" x1="1412" x2="1687" y1="409" y2="409"/></g><g id="elem_HeadersRequestCondition"><rect fill="#F1F1F1" height="48" id="HeadersRequestCondition" rx="2.5" ry="2.5" style="stroke:#181818;stroke-width:0.5;" width="215" x="1723" y="369"/><ellipse cx="1738" cy="385" fill="#ADD1B2" rx="11" ry="11" style="stroke:#181818;stroke-width:1.0;"/><path d="M1740.9688,390.6406 Q1740.3906,390.9375 1739.75,391.0781 Q1739.1094,391.2344 1738.4063,391.2344 Q1735.9063,391.2344 1734.5781,389.5938 Q1733.2656,387.9375 1733.2656,384.8125 Q1733.2656,381.6875 1734.5781,380.0313 Q1735.9063,378.375 1738.4063,378.375 Q1739.1094,378.375 1739.75,378.5313 Q1740.4063,378.6875 1740.9688,378.9844 L1740.9688,381.7031 Q1740.3438,381.125 1739.75,380.8594 Q1739.1563,380.5781 1738.5313,380.5781 Q1737.1875,380.5781 1736.5,381.6563 Q1735.8125,382.7188 1735.8125,384.8125 Q1735.8125,386.9063 1736.5,387.9844 Q1737.1875,389.0469 1738.5313,389.0469 Q1739.1563,389.0469 1739.75,388.7813 Q1740.3438,388.5 1740.9688,387.9219 L1740.9688,390.6406 Z " fill="#000000"/><text fill="#000000" font-family="sans-serif" font-size="14" lengthAdjust="spacing" textLength="183" x="1752" y="389.8467">HeadersRequestCondition</text><line style="stroke:#181818;stroke-width:0.5;" x1="1724" x2="1937" y1="401" y2="401"/><line style="stroke:#181818;stroke-width:0.5;" x1="1724" x2="1937" y1="409" y2="409"/></g><g id="elem_ConsumesRequestCondition"><rect fill="#F1F1F1" height="48" id="ConsumesRequestCondition" rx="2.5" ry="2.5" style="stroke:#181818;stroke-width:0.5;" width="232" x="1973.5" y="369"/><ellipse cx="1988.5" cy="385" fill="#ADD1B2" rx="11" ry="11" style="stroke:#181818;stroke-width:1.0;"/><path d="M1991.4688,390.6406 Q1990.8906,390.9375 1990.25,391.0781 Q1989.6094,391.2344 1988.9063,391.2344 Q1986.4063,391.2344 1985.0781,389.5938 Q1983.7656,387.9375 1983.7656,384.8125 Q1983.7656,381.6875 1985.0781,380.0313 Q1986.4063,378.375 1988.9063,378.375 Q1989.6094,378.375 1990.25,378.5313 Q1990.9063,378.6875 1991.4688,378.9844 L1991.4688,381.7031 Q1990.8438,381.125 1990.25,380.8594 Q1989.6563,380.5781 1989.0313,380.5781 Q1987.6875,380.5781 1987,381.6563 Q1986.3125,382.7188 1986.3125,384.8125 Q1986.3125,386.9063 1987,387.9844 Q1987.6875,389.0469 1989.0313,389.0469 Q1989.6563,389.0469 1990.25,388.7813 Q1990.8438,388.5 1991.4688,387.9219 L1991.4688,390.6406 Z " fill="#000000"/><text fill="#000000" font-family="sans-serif" font-size="14" lengthAdjust="spacing" textLength="200" x="2002.5" y="389.8467">ConsumesRequestCondition</text><line style="stroke:#181818;stroke-width:0.5;" x1="1974.5" x2="2204.5" y1="401" y2="401"/><line style="stroke:#181818;stroke-width:0.5;" x1="1974.5" x2="2204.5" y1="409" y2="409"/></g><g id="elem_ProducesRequestCondition"><rect fill="#F1F1F1" height="48" id="ProducesRequestCondition" rx="2.5" ry="2.5" style="stroke:#181818;stroke-width:0.5;" width="223" x="2241" y="369"/><ellipse cx="2256" cy="385" fill="#ADD1B2" rx="11" ry="11" style="stroke:#181818;stroke-width:1.0;"/><path d="M2258.9688,390.6406 Q2258.3906,390.9375 2257.75,391.0781 Q2257.1094,391.2344 2256.4063,391.2344 Q2253.9063,391.2344 2252.5781,389.5938 Q2251.2656,387.9375 2251.2656,384.8125 Q2251.2656,381.6875 2252.5781,380.0313 Q2253.9063,378.375 2256.4063,378.375 Q2257.1094,378.375 2257.75,378.5313 Q2258.4063,378.6875 2258.9688,378.9844 L2258.9688,381.7031 Q2258.3438,381.125 2257.75,380.8594 Q2257.1563,380.5781 2256.5313,380.5781 Q2255.1875,380.5781 2254.5,381.6563 Q2253.8125,382.7188 2253.8125,384.8125 Q2253.8125,386.9063 2254.5,387.9844 Q2255.1875,389.0469 2256.5313,389.0469 Q2257.1563,389.0469 2257.75,388.7813 Q2258.3438,388.5 2258.9688,387.9219 L2258.9688,390.6406 Z " fill="#000000"/><text fill="#000000" font-family="sans-serif" font-size="14" lengthAdjust="spacing" textLength="191" x="2270" y="389.8467">ProducesRequestCondition</text><line style="stroke:#181818;stroke-width:0.5;" x1="2242" x2="2463" y1="401" y2="401"/><line style="stroke:#181818;stroke-width:0.5;" x1="2242" x2="2463" y1="409" y2="409"/></g><g id="elem_RequestConditionHolder"><rect fill="#F1F1F1" height="48" id="RequestConditionHolder" rx="2.5" ry="2.5" style="stroke:#181818;stroke-width:0.5;" width="202" x="2499.5" y="369"/><ellipse cx="2514.5" cy="385" fill="#ADD1B2" rx="11" ry="11" style="stroke:#181818;stroke-width:1.0;"/><path d="M2517.4688,390.6406 Q2516.8906,390.9375 2516.25,391.0781 Q2515.6094,391.2344 2514.9063,391.2344 Q2512.4063,391.2344 2511.0781,389.5938 Q2509.7656,387.9375 2509.7656,384.8125 Q2509.7656,381.6875 2511.0781,380.0313 Q2512.4063,378.375 2514.9063,378.375 Q2515.6094,378.375 2516.25,378.5313 Q2516.9063,378.6875 2517.4688,378.9844 L2517.4688,381.7031 Q2516.8438,381.125 2516.25,380.8594 Q2515.6563,380.5781 2515.0313,380.5781 Q2513.6875,380.5781 2513,381.6563 Q2512.3125,382.7188 2512.3125,384.8125 Q2512.3125,386.9063 2513,387.9844 Q2513.6875,389.0469 2515.0313,389.0469 Q2515.6563,389.0469 2516.25,388.7813 Q2516.8438,388.5 2517.4688,387.9219 L2517.4688,390.6406 Z " fill="#000000"/><text fill="#000000" font-family="sans-serif" font-size="14" lengthAdjust="spacing" textLength="170" x="2528.5" y="389.8467">RequestConditionHolder</text><line style="stroke:#181818;stroke-width:0.5;" x1="2500.5" x2="2700.5" y1="401" y2="401"/><line style="stroke:#181818;stroke-width:0.5;" x1="2500.5" x2="2700.5" y1="409" y2="409"/></g><g id="link_HandlerMapping_AbstractHandlerMapping"><path codeLine="31" d="M230.533,84.089 C199.182,110.185 160.742,142.182 135.26,163.393 " fill="none" id="HandlerMapping-backto-AbstractHandlerMapping" style="stroke:#181818;stroke-width:1.0;"/><polygon fill="none" points="226.325,78.484,246.175,71.069,235.282,89.244,226.325,78.484" style="stroke:#181818;stroke-width:1.0;"/></g><g id="link_HandlerMapping_MappingRegistry"><path codeLine="32" d="M331.008,79.545 C349.989,95.344 372.183,113.819 392.735,130.925 " fill="none" id="HandlerMapping-backto-MappingRegistry" style="stroke:#181818;stroke-width:1.0;"/><polygon fill="#181818" points="320.825,71.069,322.8773,77.9819,330.0478,78.7463,327.9955,71.8334,320.825,71.069" style="stroke:#181818;stroke-width:1.0;"/></g><g id="link_MappingRegistry_MappingRegistration"><path codeLine="33" d="M401.282,253.955 C372.492,286.324 338.685,324.334 313.842,352.265 " fill="none" id="MappingRegistry-backto-MappingRegistration" style="stroke:#181818;stroke-width:1.0;"/><polygon fill="#181818" points="410.041,244.107,403.0646,245.932,402.066,253.0736,409.0424,251.2486,410.041,244.107" style="stroke:#181818;stroke-width:1.0;"/></g><g id="link_MappingRegistry_RequestMappingInfo"><path codeLine="34" d="M517.62,253.845 C531.809,269.798 547.221,287.125 562.18,303.944 " fill="none" id="MappingRegistry-backto-RequestMappingInfo" style="stroke:#181818;stroke-width:1.0;"/><polygon fill="#181818" points="508.959,244.107,509.9576,251.2486,516.934,253.0736,515.9354,245.932,508.959,244.107" style="stroke:#181818;stroke-width:1.0;"/></g><g id="link_MappingRegistration_HandlerMethod"><path codeLine="35" d="M278.5,446.803 C278.5,478.634 278.5,517.5833 278.5,541.8493 " fill="none" id="MappingRegistration-backto-HandlerMethod" style="stroke:#181818;stroke-width:1.0;"/><polygon fill="#181818" points="278.5,433.661,274.5,439.661,278.5,445.661,282.5,439.661,278.5,433.661" style="stroke:#181818;stroke-width:1.0;"/></g><g id="link_RequestCondition_RequestMappingInfo"><path codeLine="36" d="M1522.81,200.039 C1354.14,214.439 1086.93,244.757 862.5,304 C856.587,305.561 850.619,307.234 844.621,309.001 " fill="none" id="RequestCondition-backto-RequestMappingInfo" style="stroke:#181818;stroke-width:1.0;"/><polygon fill="none" points="1522.37,193.051,1542.89,198.361,1523.54,207.003,1522.37,193.051" style="stroke:#181818;stroke-width:1.0;"/></g><g id="link_RequestCondition_PathPatternsRequestCondition"><path codeLine="38" d="M1523.04,208.301 C1412.54,225.138 1265.87,254.668 1143.5,304 C1102.42,320.561 1059.91,348.901 1032.45,368.939 " fill="none" id="RequestCondition-backto-PathPatternsRequestCondition" style="stroke:#181818;stroke-width:1.0;"/><polygon fill="none" points="1522.08,201.367,1542.89,205.354,1524.14,215.216,1522.08,201.367" style="stroke:#181818;stroke-width:1.0;"/></g><g id="link_RequestCondition_PatternsRequestCondition"><path codeLine="39" d="M1549.81,235.096 C1499.36,253.965 1442.74,277.566 1393.5,304 C1358.43,322.831 1321.54,349.807 1297.01,368.918 " fill="none" id="RequestCondition-backto-PatternsRequestCondition" style="stroke:#181818;stroke-width:1.0;"/><polygon fill="none" points="1547.63,228.44,1568.82,228.099,1552.47,241.578,1547.63,228.44" style="stroke:#181818;stroke-width:1.0;"/></g><g id="link_RequestCondition_RequestMethodsRequestCondition"><path codeLine="40" d="M1650.71,244.881 C1622.59,285.752 1586.03,338.904 1565.43,368.846 " fill="none" id="RequestCondition-backto-RequestMethodsRequestCondition" style="stroke:#181818;stroke-width:1.0;"/><polygon fill="none" points="1645.07,240.73,1662.17,228.22,1656.61,248.665,1645.07,240.73" style="stroke:#181818;stroke-width:1.0;"/></g><g id="link_RequestCondition_HeadersRequestCondition"><path codeLine="41" d="M1728.56,244.881 C1756.88,285.752 1793.71,338.904 1814.46,368.846 " fill="none" id="RequestCondition-backto-HeadersRequestCondition" style="stroke:#181818;stroke-width:1.0;"/><polygon fill="none" points="1722.66,248.646,1717.02,228.22,1734.17,240.673,1722.66,248.646" style="stroke:#181818;stroke-width:1.0;"/></g><g id="link_RequestCondition_ConsumesRequestCondition"><path codeLine="42" d="M1810.55,235.894 C1856.74,255.313 1909.37,279.075 1955.5,304 C1991.86,323.647 2031.13,350.111 2057.69,368.873 " fill="none" id="RequestCondition-backto-ConsumesRequestCondition" style="stroke:#181818;stroke-width:1.0;"/><polygon fill="none" points="1807.63,242.264,1791.85,228.123,1813.01,229.336,1807.63,242.264" style="stroke:#181818;stroke-width:1.0;"/></g><g id="link_RequestCondition_ProducesRequestCondition"><path codeLine="43" d="M1856.17,207.697 C1964.13,224.165 2106,253.51 2223.5,304 C2261.61,320.375 2300.24,348.61 2325.16,368.679 " fill="none" id="RequestCondition-backto-ProducesRequestCondition" style="stroke:#181818;stroke-width:1.0;"/><polygon fill="none" points="1854.83,214.576,1836.07,204.721,1856.88,200.727,1854.83,214.576" style="stroke:#181818;stroke-width:1.0;"/></g><g id="link_RequestCondition_RequestConditionHolder"><path codeLine="44" d="M1856.28,203.195 C2054.27,222.311 2371.49,258.681 2481.5,304 C2518.32,319.171 2554.18,348.231 2576.74,368.8 " fill="none" id="RequestCondition-backto-RequestConditionHolder" style="stroke:#181818;stroke-width:1.0;"/><polygon fill="none" points="1855.56,210.158,1836.32,201.287,1856.89,196.222,1855.56,210.158" style="stroke:#181818;stroke-width:1.0;"/></g></g></svg>