<?xml version="1.0" encoding="UTF-8" standalone="no"?><svg xmlns="http://www.w3.org/2000/svg" xmlns:xlink="http://www.w3.org/1999/xlink" contentStyleType="text/css" height="552px" preserveAspectRatio="none" style="width:394px;height:552px;background:#FFFFFF;" version="1.1" viewBox="0 0 394 552" width="394px" zoomAndPan="magnify"><defs/><g><rect fill="none" height="288.5391" style="stroke:#000000;stroke-width:1.5;" width="282" x="10" y="182.8281"/><rect fill="none" height="116.2031" style="stroke:#000000;stroke-width:1.5;" width="194" x="20" y="348.1641"/><line style="stroke:#181818;stroke-width:0.5;stroke-dasharray:5.0,5.0;" x1="65" x2="65" y1="36.2969" y2="517.5"/><line style="stroke:#181818;stroke-width:0.5;stroke-dasharray:5.0,5.0;" x1="287" x2="287" y1="36.2969" y2="517.5"/><line style="stroke:#181818;stroke-width:0.5;stroke-dasharray:5.0,5.0;" x1="360" x2="360" y1="36.2969" y2="517.5"/><rect fill="#E2E2F0" height="30.2969" rx="2.5" ry="2.5" style="stroke:#181818;stroke-width:0.5;" width="70" x="30" y="5"/><text fill="#000000" font-family="sans-serif" font-size="14" lengthAdjust="spacing" textLength="56" x="37" y="24.9951">支付服务</text><rect fill="#E2E2F0" height="30.2969" rx="2.5" ry="2.5" style="stroke:#181818;stroke-width:0.5;" width="70" x="30" y="516.5"/><text fill="#000000" font-family="sans-serif" font-size="14" lengthAdjust="spacing" textLength="56" x="37" y="536.4951">支付服务</text><rect fill="#E2E2F0" height="30.2969" rx="2.5" ry="2.5" style="stroke:#181818;stroke-width:0.5;" width="70" x="252" y="5"/><text fill="#000000" font-family="sans-serif" font-size="14" lengthAdjust="spacing" textLength="56" x="259" y="24.9951">微信支付</text><rect fill="#E2E2F0" height="30.2969" rx="2.5" ry="2.5" style="stroke:#181818;stroke-width:0.5;" width="70" x="252" y="516.5"/><text fill="#000000" font-family="sans-serif" font-size="14" lengthAdjust="spacing" textLength="56" x="259" y="536.4951">微信支付</text><rect fill="#E2E2F0" height="30.2969" rx="2.5" ry="2.5" style="stroke:#181818;stroke-width:0.5;" width="56" x="332" y="5"/><text fill="#000000" font-family="sans-serif" font-size="14" lengthAdjust="spacing" textLength="42" x="339" y="24.9951">支付宝</text><rect fill="#E2E2F0" height="30.2969" rx="2.5" ry="2.5" style="stroke:#181818;stroke-width:0.5;" width="56" x="332" y="516.5"/><text fill="#000000" font-family="sans-serif" font-size="14" lengthAdjust="spacing" textLength="42" x="339" y="536.4951">支付宝</text><polygon fill="#181818" points="275,63.4297,285,67.4297,275,71.4297,279,67.4297" style="stroke:#181818;stroke-width:1.0;"/><line style="stroke:#181818;stroke-width:1.0;" x1="65" x2="281" y1="67.4297" y2="67.4297"/><text fill="#000000" font-family="sans-serif" font-size="13" font-weight="bold" lengthAdjust="spacing" textLength="9" x="72" y="62.3638">1</text><text fill="#000000" font-family="sans-serif" font-size="13" lengthAdjust="spacing" textLength="52" x="85" y="62.3638">发起支付</text><polygon fill="#181818" points="348,92.5625,358,96.5625,348,100.5625,352,96.5625" style="stroke:#181818;stroke-width:1.0;"/><line style="stroke:#181818;stroke-width:1.0;" x1="65" x2="354" y1="96.5625" y2="96.5625"/><text fill="#000000" font-family="sans-serif" font-size="13" font-weight="bold" lengthAdjust="spacing" textLength="9" x="72" y="91.4966">2</text><text fill="#000000" font-family="sans-serif" font-size="13" lengthAdjust="spacing" textLength="52" x="85" y="91.4966">发起支付</text><polygon fill="#181818" points="76,121.6953,66,125.6953,76,129.6953,72,125.6953" style="stroke:#181818;stroke-width:1.0;"/><line style="stroke:#181818;stroke-width:1.0;stroke-dasharray:2.0,2.0;" x1="70" x2="359" y1="125.6953" y2="125.6953"/><text fill="#000000" font-family="sans-serif" font-size="13" font-weight="bold" lengthAdjust="spacing" textLength="9" x="82" y="120.6294">3</text><text fill="#000000" font-family="sans-serif" font-size="13" lengthAdjust="spacing" textLength="52" x="95" y="120.6294">支付成功</text><line style="stroke:#181818;stroke-width:1.0;" x1="65" x2="107" y1="154.8281" y2="154.8281"/><line style="stroke:#181818;stroke-width:1.0;" x1="107" x2="107" y1="154.8281" y2="167.8281"/><line style="stroke:#181818;stroke-width:1.0;" x1="66" x2="107" y1="167.8281" y2="167.8281"/><polygon fill="#181818" points="76,163.8281,66,167.8281,76,171.8281,72,167.8281" style="stroke:#181818;stroke-width:1.0;"/><text fill="#000000" font-family="sans-serif" font-size="13" font-weight="bold" lengthAdjust="spacing" textLength="9" x="72" y="149.7622">4</text><text fill="#000000" font-family="sans-serif" font-size="13" lengthAdjust="spacing" textLength="91" x="85" y="149.7622">检查支付单状态</text><path d="M10,182.8281 L74,182.8281 L74,189.9609 L64,199.9609 L10,199.9609 L10,182.8281 " fill="#EEEEEE" style="stroke:#000000;stroke-width:1.5;"/><rect fill="none" height="288.5391" style="stroke:#000000;stroke-width:1.5;" width="282" x="10" y="182.8281"/><text fill="#000000" font-family="sans-serif" font-size="13" font-weight="bold" lengthAdjust="spacing" textLength="19" x="25" y="195.895">alt</text><text fill="#000000" font-family="sans-serif" font-size="11" font-weight="bold" lengthAdjust="spacing" textLength="43" x="89" y="195.0386">[支付中]</text><line style="stroke:#181818;stroke-width:1.0;" x1="65" x2="107" y1="221.0938" y2="221.0938"/><line style="stroke:#181818;stroke-width:1.0;" x1="107" x2="107" y1="221.0938" y2="234.0938"/><line style="stroke:#181818;stroke-width:1.0;" x1="66" x2="107" y1="234.0938" y2="234.0938"/><polygon fill="#181818" points="76,230.0938,66,234.0938,76,238.0938,72,234.0938" style="stroke:#181818;stroke-width:1.0;"/><text fill="#000000" font-family="sans-serif" font-size="13" font-weight="bold" lengthAdjust="spacing" textLength="9" x="72" y="216.0278">5</text><text fill="#000000" font-family="sans-serif" font-size="13" lengthAdjust="spacing" textLength="117" x="85" y="216.0278">状态推进到支付成功</text><line style="stroke:#181818;stroke-width:1.0;" x1="65" x2="107" y1="263.2266" y2="263.2266"/><line style="stroke:#181818;stroke-width:1.0;" x1="107" x2="107" y1="263.2266" y2="276.2266"/><line style="stroke:#181818;stroke-width:1.0;" x1="66" x2="107" y1="276.2266" y2="276.2266"/><polygon fill="#181818" points="76,272.2266,66,276.2266,76,280.2266,72,276.2266" style="stroke:#181818;stroke-width:1.0;"/><text fill="#000000" font-family="sans-serif" font-size="13" font-weight="bold" lengthAdjust="spacing" textLength="9" x="72" y="258.1606">6</text><text fill="#000000" font-family="sans-serif" font-size="13" lengthAdjust="spacing" textLength="141" x="85" y="258.1606">记录渠道支付单号+渠道</text><line style="stroke:#000000;stroke-width:1.0;stroke-dasharray:2.0,2.0;" x1="10" x2="292" y1="285.2266" y2="285.2266"/><text fill="#000000" font-family="sans-serif" font-size="11" font-weight="bold" lengthAdjust="spacing" textLength="54" x="15" y="295.437">[支付成功]</text><line style="stroke:#181818;stroke-width:1.0;" x1="65" x2="107" y1="320.1641" y2="320.1641"/><line style="stroke:#181818;stroke-width:1.0;" x1="107" x2="107" y1="320.1641" y2="333.1641"/><line style="stroke:#181818;stroke-width:1.0;" x1="66" x2="107" y1="333.1641" y2="333.1641"/><polygon fill="#181818" points="76,329.1641,66,333.1641,76,337.1641,72,333.1641" style="stroke:#181818;stroke-width:1.0;"/><text fill="#000000" font-family="sans-serif" font-size="13" font-weight="bold" lengthAdjust="spacing" textLength="9" x="72" y="315.0981">7</text><text fill="#000000" font-family="sans-serif" font-size="13" lengthAdjust="spacing" textLength="195" x="85" y="315.0981">判断渠道及渠道支付单号是否一致</text><path d="M20,348.1641 L84,348.1641 L84,355.2969 L74,365.2969 L20,365.2969 L20,348.1641 " fill="#EEEEEE" style="stroke:#000000;stroke-width:1.5;"/><rect fill="none" height="116.2031" style="stroke:#000000;stroke-width:1.5;" width="194" x="20" y="348.1641"/><text fill="#000000" font-family="sans-serif" font-size="13" font-weight="bold" lengthAdjust="spacing" textLength="19" x="35" y="361.231">alt</text><text fill="#000000" font-family="sans-serif" font-size="11" font-weight="bold" lengthAdjust="spacing" textLength="32" x="99" y="360.3745">[一致]</text><line style="stroke:#181818;stroke-width:1.0;" x1="65" x2="107" y1="386.4297" y2="386.4297"/><line style="stroke:#181818;stroke-width:1.0;" x1="107" x2="107" y1="386.4297" y2="399.4297"/><line style="stroke:#181818;stroke-width:1.0;" x1="66" x2="107" y1="399.4297" y2="399.4297"/><polygon fill="#181818" points="76,395.4297,66,399.4297,76,403.4297,72,399.4297" style="stroke:#181818;stroke-width:1.0;"/><text fill="#000000" font-family="sans-serif" font-size="13" font-weight="bold" lengthAdjust="spacing" textLength="9" x="72" y="381.3638">8</text><text fill="#000000" font-family="sans-serif" font-size="13" lengthAdjust="spacing" textLength="52" x="85" y="381.3638">幂等成功</text><line style="stroke:#000000;stroke-width:1.0;stroke-dasharray:2.0,2.0;" x1="20" x2="214" y1="408.4297" y2="408.4297"/><text fill="#000000" font-family="sans-serif" font-size="11" font-weight="bold" lengthAdjust="spacing" textLength="43" x="25" y="418.6401">[不一致]</text><line style="stroke:#181818;stroke-width:1.0;" x1="65" x2="107" y1="443.3672" y2="443.3672"/><line style="stroke:#181818;stroke-width:1.0;" x1="107" x2="107" y1="443.3672" y2="456.3672"/><line style="stroke:#181818;stroke-width:1.0;" x1="66" x2="107" y1="456.3672" y2="456.3672"/><polygon fill="#181818" points="76,452.3672,66,456.3672,76,460.3672,72,456.3672" style="stroke:#181818;stroke-width:1.0;"/><text fill="#000000" font-family="sans-serif" font-size="13" font-weight="bold" lengthAdjust="spacing" textLength="9" x="72" y="438.3013">9</text><text fill="#000000" font-family="sans-serif" font-size="13" lengthAdjust="spacing" textLength="117" x="85" y="438.3013">处理失败，发起退款</text><polygon fill="#181818" points="76,495.5,66,499.5,76,503.5,72,499.5" style="stroke:#181818;stroke-width:1.0;"/><line style="stroke:#181818;stroke-width:1.0;stroke-dasharray:2.0,2.0;" x1="70" x2="286" y1="499.5" y2="499.5"/><text fill="#000000" font-family="sans-serif" font-size="13" font-weight="bold" lengthAdjust="spacing" textLength="18" x="82" y="494.4341">10</text><text fill="#000000" font-family="sans-serif" font-size="13" lengthAdjust="spacing" textLength="52" x="104" y="494.4341">支付成功</text></g></svg>