<?xml version="1.0" encoding="us-ascii" standalone="no"?><svg xmlns="http://www.w3.org/2000/svg" xmlns:xlink="http://www.w3.org/1999/xlink" contentStyleType="text/css" height="224px" preserveAspectRatio="none" style="width:367px;height:224px;background:#FFFFFF;" version="1.1" viewBox="0 0 367 224" width="367px" zoomAndPan="magnify"><defs/><g><ellipse cx="38" cy="16" fill="#222222" rx="10" ry="10" style="stroke:#222222;stroke-width:1.0;"/><g id="&#24453;&#21457;&#36865;"><rect fill="#F1F1F1" height="50" rx="12.5" ry="12.5" style="stroke:#181818;stroke-width:0.5;" width="62" x="7" y="86"/><line style="stroke:#181818;stroke-width:0.5;" x1="7" x2="69" y1="112.2969" y2="112.2969"/><text fill="#000000" font-family="sans-serif" font-size="14" lengthAdjust="spacing" textLength="42" x="17" y="103.9951">&#24453;&#21457;&#36865;</text></g><g id="&#24050;&#21457;&#36865;"><rect fill="#F1F1F1" height="50" rx="12.5" ry="12.5" style="stroke:#181818;stroke-width:0.5;" width="62" x="201" y="86"/><line style="stroke:#181818;stroke-width:0.5;" x1="201" x2="263" y1="112.2969" y2="112.2969"/><text fill="#000000" font-family="sans-serif" font-size="14" lengthAdjust="spacing" textLength="42" x="211" y="103.9951">&#24050;&#21457;&#36865;</text></g><g id="&#24050;&#28040;&#36153;"><rect fill="#F1F1F1" height="50" rx="12.5" ry="12.5" style="stroke:#181818;stroke-width:0.5;" width="62" x="298" y="86"/><line style="stroke:#181818;stroke-width:0.5;" x1="298" x2="360" y1="112.2969" y2="112.2969"/><text fill="#000000" font-family="sans-serif" font-size="14" lengthAdjust="spacing" textLength="42" x="308" y="103.9951">&#24050;&#28040;&#36153;</text></g><g id="&#24050;&#22833;&#36133;"><rect fill="#F1F1F1" height="50" rx="12.5" ry="12.5" style="stroke:#181818;stroke-width:0.5;" width="62" x="104" y="86"/><line style="stroke:#181818;stroke-width:0.5;" x1="104" x2="166" y1="112.2969" y2="112.2969"/><text fill="#000000" font-family="sans-serif" font-size="14" lengthAdjust="spacing" textLength="42" x="114" y="103.9951">&#24050;&#22833;&#36133;</text></g><ellipse cx="232" cy="207" fill="none" rx="11" ry="11" style="stroke:#222222;stroke-width:1.0;"/><ellipse cx="232" cy="207" fill="#222222" rx="6" ry="6" style="stroke:#222222;stroke-width:1.0;"/><g id="link_*start*_&#24453;&#21457;&#36865;"><path d="M38,26.257 C38,40.04 38,60.422 38,79.907 " fill="none" id="*start*-to-&#24453;&#21457;&#36865;" style="stroke:#181818;stroke-width:1.0;"/><polygon fill="#181818" points="38,85.907,42,76.907,38,80.907,34,76.907,38,85.907" style="stroke:#181818;stroke-width:1.0;"/></g><g id="link_&#24453;&#21457;&#36865;_&#24050;&#21457;&#36865;"><path d="M60.3382,85.792 C72.176,74.347 87.7248,62.038 104.5,56 C130.427,46.667 140.608,46.571 166.5,56 C183.103,62.046 194.1448,70.1503 205.7878,81.5933 " fill="none" id="&#24453;&#21457;&#36865;-to-&#24050;&#21457;&#36865;" style="stroke:#181818;stroke-width:1.0;"/><polygon fill="#181818" points="210.067,85.799,206.452,76.6376,206.501,82.2942,200.8443,82.3432,210.067,85.799" style="stroke:#181818;stroke-width:1.0;"/></g><g id="link_&#24050;&#21457;&#36865;_&#24050;&#28040;&#36153;"><path d="M263.07,111 C274.66,111 280.249,111 291.838,111 " fill="none" id="&#24050;&#21457;&#36865;-to-&#24050;&#28040;&#36153;" style="stroke:#181818;stroke-width:1.0;"/><polygon fill="#181818" points="297.838,111,288.838,107,292.838,111,288.838,115,297.838,111" style="stroke:#181818;stroke-width:1.0;"/></g><g id="link_&#24453;&#21457;&#36865;_&#24050;&#22833;&#36133;"><path d="M69.0703,111 C80.6595,111 86.2487,111 97.8379,111 " fill="none" id="&#24453;&#21457;&#36865;-to-&#24050;&#22833;&#36133;" style="stroke:#181818;stroke-width:1.0;"/><polygon fill="#181818" points="103.8379,111,94.8379,107,98.8379,111,94.8379,115,103.8379,111" style="stroke:#181818;stroke-width:1.0;"/></g><g id="link_&#24050;&#22833;&#36133;_*end*"><path d="M159.98,136.2073 C181.311,156.8784 206.3412,181.1352 220.0522,194.4216 " fill="none" id="&#24050;&#22833;&#36133;-to-*end*" style="stroke:#181818;stroke-width:1.0;"/><polygon fill="#181818" points="224.361,198.597,220.6813,189.4613,220.7703,195.1175,215.1142,195.2065,224.361,198.597" style="stroke:#181818;stroke-width:1.0;"/></g><g id="link_&#24050;&#28040;&#36153;_*end*"><path d="M304.02,136.2073 C282.689,156.8784 257.6588,181.1352 243.9478,194.4216 " fill="none" id="&#24050;&#28040;&#36153;-to-*end*" style="stroke:#181818;stroke-width:1.0;"/><polygon fill="#181818" points="239.639,198.597,248.8858,195.2065,243.2297,195.1175,243.3187,189.4613,239.639,198.597" style="stroke:#181818;stroke-width:1.0;"/></g></g></svg>